<svg xmlns="http://www.w3.org/2000/svg" version="1.1" xmlns:xlink="http://www.w3.org/1999/xlink" xmlns:svgjs="http://svgjs.dev/svgjs" width="100%" height="100%" viewBox="0 0 1000 600"><rect width="1000" height="600" x="0" y="0" fill="#ffffff"/><g><rect width="333.3333333333333" height="333.3333333333333" rx="13.333333333333334" ry="13.333333333333334" y="282.33363608928016" fill="#2596be" transform="matrix(0.4805632351291725,0,0,0.48056323512917254,-2.0883468139849612,84.22694071244838)" x="268.47747802734375"/><path d="M274.56468933616355 395.2089179917345L274.56468933616355 395.2089179917345Q268.72859676836833 395.2089179917345 267.06468952563523 393.5698451854601L267.06468952563523 393.5698451854601Q264.45707369747146 390.86289161146146 264.45707369747146 386.0946798113905Q264.45707369747146 381.32646801131955 265.0034312995629 379.2900442217059Q265.57462333811304 377.2287859956336 266.7170074152134 376.11123635499195L266.7170074152134 376.11123635499195Q268.80310007774443 374.0003092560022 273.12429202155874 374.0003092560022Q277.44548396537306 374.0003092560022 279.3329011362345 374.44732911225884Q281.2203183070959 374.8695145320568 282.43720569357237 376.11123635499195L282.43720569357237 376.11123635499195Q284.5232983561034 378.197329017523 284.5232983561034 382.96554081759393Q284.5232983561034 387.70891818120623 284.05144406338803 389.77017640727854Q283.554755334214 391.8066001968922 282.43720569357237 393.04832201982737L282.43720569357237 393.04832201982737Q280.2517752852065 395.2089179917345 274.56468933616355 395.2089179917345ZM267.6855504371028 524.0003054665679L267.5117093818919 420.0930233233548L281.8163447821048 420.0930233233548L281.8163447821048 524.0003054665679L267.6855504371028 524.0003054665679ZM324.9537609108718 524.0003054665679L324.9537609108718 391.21057372188335Q324.9537609108718 391.21057372188335 338.04150892460825 390.2420306999939L338.04150892460825 390.2420306999939Q357.68554816344226 388.6774612030956 369.3825677354913 388.6774612030956Q381.0795873075404 388.6774612030956 388.0828983888946 389.5963353520676Q395.06137503379017 390.51520950103964 400.35110999949393 392.7254743458642Q405.6160105287389 394.9605736271474 409.3411759975444 398.80991127824643Q413.04150702989114 402.63441449288666 415.4007784934679 408.5698448065167L415.4007784934679 408.5698448065167Q419.8461426195757 419.6708379035569 419.8461426195757 441.57481086013286L419.8461426195757 441.57481086013286L419.8461426195757 455.109578730126Q419.8461426195757 481.03673039301185 416.0216394049354 494.4969949536288L416.0216394049354 494.4969949536288Q411.55144084236895 510.01851774031815 400.02826232553076 516.8479877664615L400.02826232553076 516.8479877664615Q388.15740169827075 524.0003054665679 365.21038241042925 524.0003054665679L365.21038241042925 524.0003054665679L324.9537609108718 524.0003054665679ZM399.0845537401 411.6244804909371Q395.9305803098448 406.6575931991965 389.99514999621476 404.1244806804088Q384.0597196825848 401.5913681616211 371.7418391990681 401.5913681616211Q359.4487931520101 401.5913681616211 339.8047539131761 403.0814343491433L339.8047539131761 403.0814343491433L339.8047539131761 511.50858392784033L367.5448194375473 511.50858392784033Q383.78654088153905 511.50858392784033 391.65905723894787 506.1940145256779L391.65905723894787 506.1940145256779Q399.33289810468705 501.0284517422677 401.9653483693096 488.462226894164L401.9653483693096 488.462226894164Q404.2252820870516 478.1559357638023 404.2252820870516 455.109578730126L404.2252820870516 455.109578730126L404.2252820870516 441.50030755075676Q404.2252820870516 419.745341212933 399.0845537401 411.6244804909371L399.0845537401 411.6244804909371ZM449.2749498231386 524.0003054665679L469.8875320838621 390.4158717552048L492.66071031649267 390.4158717552048L523.0580605419451 489.0830878056316L528.1987888888966 510.3910342871987L533.1905106170958 488.98375005979676L562.519980074824 390.4158717552048L584.2501119761891 390.4158717552048L605.8312372588019 524.0003054665679L590.9802442564976 524.0003054665679L574.7385228125058 423.0731556983992L572.304748039553 399.5052754990901L566.9653442009319 423.2469967536101L536.8411727765252 523.9009677207331L519.6557427471027 523.9009677207331L488.2153461903848 422.7254735879773L482.0067370757091 399.5052754990901L479.05143913712345 422.89931464318823L464.29978388065393 524.0003054665679L449.2749498231386 524.0003054665679Z " fill="#ffffff" transform="matrix(0.4805632351291725,0,0,0.48056323512917254,-2.0883468139849612,84.22694071244838)"/><path d="M685.1441465421894 522.3918527517517L685.1441465421894 398.7935048522895L698.7930438562405 398.7935048522895L698.7930438562405 522.3918527517517L685.1441465421894 522.3918527517517ZM783.0301777843737 437.2585791009788L783.0301777843737 437.2585791009788Q767.2902877841632 437.2585791009788 750.9759492437993 446.541667509862L750.9759492437993 446.541667509862L750.9759492437993 522.3918527517517L737.5568313458097 522.3918527517517L737.5568313458097 426.25214507163463L749.3445153897628 426.25214507163463L750.6542580613132 436.20159378709604Q759.4548096964672 429.00949806437217 772.5292584703647 425.93045388914857L772.5292584703647 425.93045388914857Q777.8601409229907 424.64368915920437 785.0522366457145 424.64368915920437Q792.2443323684383 424.64368915920437 797.7360604123074 426.2981009548469Q803.2277884561764 427.95251275048946 806.467678222643 431.5830275242606L806.467678222643 431.5830275242606Q812.3730092154227 438.13174088201237 812.3730092154227 455.4341309114407L812.3730092154227 455.4341309114407L812.3730092154227 522.3918527517517L798.7930457261901 522.3918527517517L798.7930457261901 457.9387265465107Q798.7930457261901 446.2889101521944 796.5412074487878 442.934130677697Q794.2663912297793 439.57935120319956 791.1643691129495 438.4304541228923Q788.0393690545136 437.2585791009788 783.0301777843737 437.2585791009788ZM912.1202537277048 522.7135439342378L910.1901066327885 511.6381760800751Q893.1404739610277 524.0003086641818 875.5393706907196 524.0003086641818L875.5393706907196 524.0003086641818Q856.0770541503134 524.0003086641818 849.5972746173801 509.7080289851588L849.5972746173801 509.7080289851588Q845.8978260187905 501.61979353979524 845.4382671866675 492.61244043018576Q845.0016862961508 483.60508732057633 845.0016862961508 476.7806386635508Q845.0016862961508 469.95619000652533 845.1165760041815 463.01685164146903Q845.2314657122123 456.0775132764128 846.127605434852 450.17218228363316Q847.0237451574917 444.2668512908535 848.9079363691957 439.5563732615935Q850.8151055225059 434.8229172907273 854.3766864714586 431.5140936994422L854.3766864714586 431.5140936994422Q861.7296277854255 424.64368915920437 878.6413928075493 424.64368915920437Q895.5761357712793 424.64368915920437 909.2250330853303 430.549020151984L909.2250330853303 430.549020151984L909.2250330853303 384.8918501805709L922.6211730417137 383.60508545062663L922.6211730417137 478.20527104313186Q922.6211730417137 506.0775142113876 924.1606951293255 521.7484703867796L924.1606951293255 521.7484703867796L912.1202537277048 522.7135439342378ZM909.1331213189058 477.5618886781598L909.2250330853303 441.6014100645405Q894.6799960486396 436.75306438564354 881.1000325594069 436.75306438564354L881.1000325594069 436.75306438564354Q871.2654735519762 436.75306438564354 868.0945176103281 438.38449823968Q864.946539610286 439.99295415211026 863.2921278146434 442.5894615536048Q861.6377160190009 445.1629910134932 860.5807307051182 449.6896455099041L860.5807307051182 449.6896455099041Q858.7424953766264 458.1685059625721 858.7424953766264 477.6308225029782L858.7424953766264 477.6308225029782L858.7424953766264 479.4231019482577Q858.7424953766264 497.59865375871954 862.6947013328837 504.53799212377584L862.6947013328837 504.53799212377584Q866.9685984716269 511.8909334377427 878.595436924337 511.8909334377427L878.595436924337 511.8909334377427L879.8132678294628 511.8909334377427Q890.9575695084438 511.8909334377427 903.5724594502183 504.79074948144347L903.5724594502183 504.79074948144347Q907.0421286327464 502.837624444921 909.5467242678163 500.9074773500047L909.5467242678163 500.9074773500047L909.5467242678163 500.7466317587616Q909.1331213189058 493.23284485355174 909.1331213189058 477.5618886781598L909.1331213189058 477.5618886781598ZM1029.2618000358398 505.7558230289016L1033.214005992097 517.3137276567933Q1016.5090424444285 524.0003086641818 996.3114317726257 524.0003086641818L996.3114317726257 524.0003086641818Q984.5926815534909 524.0003086641818 976.4355122833089 521.5876247955366L976.4355122833089 521.5876247955366Q963.42999733423 517.8651982553408 959.1561001954867 506.23835980263067L959.1561001954867 506.23835980263067Q955.1809162976234 495.32383753971106 955.1809162976234 473.93137390438864L955.1809162976234 473.93137390438864L955.1809162976234 469.7953444152823Q955.1809162976234 444.19791746603505 965.8426812028753 433.8578437432691L965.8426812028753 433.8578437432691Q975.4704387358507 424.64368915920437 997.9198876850559 424.64368915920437L997.9198876850559 424.64368915920437Q1019.8178660357136 424.64368915920437 1027.8141897146525 435.4662996556994L1027.8141897146525 435.4662996556994Q1031.6974618460913 440.7282482835069 1032.9382706928232 448.19607930550455Q1034.2020574811613 455.66391032750215 1034.2020574811613 462.4424031013154L1034.2020574811613 462.4424031013154Q1034.2020574811613 473.03523418174893 1033.696542765826 478.848653408104L1033.696542765826 478.848653408104Q1022.3224616707836 479.3311901818331 1013.2691526779619 479.3311901818331L1013.2691526779619 479.3311901818331Q1013.2691526779619 479.3311901818331 1000.2636377288828 479.3311901818331L1000.2636377288828 479.3311901818331Q979.905181465837 479.3311901818331 968.921725378099 477.5618886781598L968.921725378099 477.5618886781598Q968.921725378099 496.1280654959262 973.609225465753 503.4810068098931L973.609225465753 503.4810068098931Q979.3307329256834 512.4653819778964 996.4722773638687 512.4653819778964Q1013.5908438604478 512.4653819778964 1029.2618000358398 505.7558230289016L1029.2618000358398 505.7558230289016ZM968.921725378099 468.09497673642744L1020.5301822255041 468.09497673642744L1020.5301822255041 460.35141041515607Q1020.5301822255041 447.66758664856314 1015.6129027217888 442.2447924295126L1015.6129027217888 442.2447924295126Q1010.1211746779197 436.20159378709604 996.6331229551117 436.20159378709604L996.6331229551117 436.20159378709604Q980.4796300059907 436.20159378709604 974.5742990132111 443.23284391857686L974.5742990132111 443.23284391857686Q968.921725378099 449.91942492596553 968.921725378099 468.09497673642744L968.921725378099 468.09497673642744ZM987.9934169112006 409.38633593272306L981.2838579622058 402.3550858012422L1007.3638216851822 374.0003058592574L1017.8647409991911 383.7659310418697L987.9934169112006 409.38633593272306ZM1071.1965434670574 522.3918527517517L1071.035697875814 385.0526957718139L1084.3629040073793 383.92677663311275L1084.3629040073793 522.3918527517517L1071.1965434670574 522.3918527517517ZM1194.6340457752763 505.7558230289016L1198.5862517315336 517.3137276567933Q1181.858310242259 524.0003086641818 1161.660699570456 524.0003086641818L1161.660699570456 524.0003086641818Q1149.9419493513215 524.0003086641818 1141.7847800811392 521.5876247955366L1141.7847800811392 521.5876247955366Q1128.7792651320606 517.8651982553408 1124.5053679933171 506.23835980263067L1124.5053679933171 506.23835980263067Q1120.5531620370598 495.32383753971106 1120.5531620370598 473.93137390438864L1120.5531620370598 473.93137390438864L1120.5531620370598 469.7953444152823Q1120.5531620370598 444.19791746603505 1131.2149269423119 433.8578437432691L1131.2149269423119 433.8578437432691Q1140.8197065336813 424.64368915920437 1163.2921334244925 424.64368915920437L1163.2921334244925 424.64368915920437Q1185.167133833544 424.64368915920437 1193.1634575124829 435.4662996556994L1193.1634575124829 435.4662996556994Q1197.0467296439217 440.7282482835069 1198.3105164322596 448.19607930550455Q1199.5513252789915 455.66391032750215 1199.5513252789915 462.4424031013154L1199.5513252789915 462.4424031013154Q1199.5513252789915 473.03523418174893 1199.0687885052625 478.848653408104L1199.0687885052625 478.848653408104Q1187.671729468614 479.3311901818331 1178.6184204757924 479.3311901818331L1178.6184204757924 479.3311901818331Q1178.6184204757924 479.3311901818331 1165.6129055267133 479.3311901818331L1165.6129055267133 479.3311901818331Q1145.2774272052734 479.3311901818331 1134.2709931759296 477.5618886781598L1134.2709931759296 477.5618886781598Q1134.2709931759296 496.1280654959262 1138.9584932635835 503.4810068098931L1138.9584932635835 503.4810068098931Q1144.7029786651199 512.4653819778964 1161.821545161699 512.4653819778964Q1178.9630895998844 512.4653819778964 1194.6340457752763 505.7558230289016L1194.6340457752763 505.7558230289016ZM1134.2709931759296 468.09497673642744L1185.9024279649407 468.09497673642744L1185.9024279649407 460.35141041515607Q1185.9024279649407 447.66758664856314 1180.9621705196191 442.2447924295126L1180.9621705196191 442.2447924295126Q1175.4704424757501 436.20159378709604 1161.9823907529421 436.20159378709604L1161.9823907529421 436.20159378709604Q1145.8288978038213 436.20159378709604 1139.9235668110414 443.23284391857686L1139.9235668110414 443.23284391857686Q1134.2709931759296 449.91942492596553 1134.2709931759296 468.09497673642744L1134.2709931759296 468.09497673642744ZM1153.342684709031 409.38633593272306L1146.6331257600364 402.3550858012422L1172.7360674246188 374.0003058592574L1183.2369867386278 383.7659310418697L1153.342684709031 409.38633593272306ZM1246.0816570314385 513.4304555253545L1246.0816570314385 513.4304555253545L1244.3812893525835 522.3918527517517L1232.9842303159348 522.3918527517517L1232.9842303159348 384.8918501805709L1246.4033482139243 383.60508545062663L1246.4033482139243 435.4662996556994Q1263.131289703199 424.64368915920437 1278.7103341121665 424.64368915920437L1278.7103341121665 424.64368915920437Q1300.3785330467626 424.64368915920437 1306.1919522731177 437.9708952907693L1306.1919522731177 437.9708952907693Q1309.822467046889 446.38082191861895 1310.305003820618 461.56924132028183L1310.305003820618 461.56924132028183Q1310.4658494118612 468.9221826342487 1310.4658494118612 477.7227342694028L1310.4658494118612 477.7227342694028L1310.4658494118612 484.17953586073Q1310.4658494118612 495.25490371489263 1309.0412170322797 500.81556558358005Q1307.639562594305 506.39920539387373 1305.4566581417212 510.3973672333432Q1303.2737536891373 514.3955290728127 1299.4823933241228 517.3826614816116L1299.4823933241228 517.3826614816116Q1291.2333122875164 524.0003086641818 1275.8840472946104 524.0003086641818Q1260.5347823017046 524.0003086641818 1246.0816570314385 513.4304555253545ZM1246.4033482139243 446.1280645609514L1246.4033482139243 502.837624444921Q1263.5219147105036 512.1436907954103 1275.2406649296383 512.1436907954103L1275.2406649296383 512.1436907954103L1276.2057384770965 512.1436907954103Q1290.0384593239967 512.1436907954103 1293.9906652802538 504.46905829895735L1293.9906652802538 504.46905829895735Q1296.0816579664133 500.5857861675186 1296.5641947401423 494.35876399225293Q1297.0467315138712 488.13174181698724 1297.0467315138712 479.4231019482577L1297.0467315138712 479.4231019482577L1297.0467315138712 467.7732855539414Q1297.0467315138712 449.75857933472247 1292.933679966371 443.5545351010629L1292.933679966371 443.5545351010629Q1288.8895622436894 437.32751292579724 1277.5844149734653 437.32751292579724L1277.5844149734653 437.32751292579724L1275.5623561121245 437.32751292579724Q1265.4750397470261 437.32751292579724 1252.147833615461 443.30177774339535L1252.147833615461 443.30177774339535Q1248.678164432933 444.8412998310071 1246.4033482139243 446.1280645609514L1246.4033482139243 446.1280645609514ZM1353.273754624112 403.2282475822758L1353.273754624112 403.2282475822758Q1347.8739383466677 403.2282475822758 1346.3344162590556 401.7117034362701L1346.3344162590556 401.7117034362701Q1343.898754448804 399.20710780120015 1343.898754448804 394.79534301282Q1343.898754448804 390.3835782244399 1344.4272471057457 388.4993870127359Q1344.9557397626868 386.5922178594257 1346.0127250765695 385.5582104871491L1346.0127250765695 385.5582104871491Q1347.9428721714862 383.60508545062663 1351.9410340109557 383.60508545062663Q1355.9391958504252 383.60508545062663 1357.6855194124923 384.0186883995373Q1359.4088650329531 384.4093134068418 1360.5577621132607 385.5582104871491L1360.5577621132607 385.5582104871491Q1362.487909208177 387.4883575820654 1362.487909208177 391.90012237044556Q1362.487909208177 396.28890921721955 1362.0513283176601 398.19607837052973Q1361.591769485537 400.0802695822337 1360.5577621132607 401.22916666254105L1360.5577621132607 401.22916666254105Q1358.5357032519196 403.2282475822758 1353.273754624112 403.2282475822758ZM1346.9088647992094 522.3918527517517L1346.7250412663602 426.25214507163463L1359.983313573107 426.25214507163463L1359.983313573107 522.3918527517517L1346.9088647992094 522.3918527517517ZM1401.918057004324 522.3918527517517L1401.7572114130812 385.0526957718139L1415.084417544646 383.92677663311275L1415.084417544646 522.3918527517517L1401.918057004324 522.3918527517517ZM1525.3555593125434 505.7558230289016L1529.3077652688007 517.3137276567933Q1512.5798237795257 524.0003086641818 1492.3822131077231 524.0003086641818L1492.3822131077231 524.0003086641818Q1480.6634628885881 524.0003086641818 1472.5062936184063 521.5876247955366L1472.5062936184063 521.5876247955366Q1459.5007786693272 517.8651982553408 1455.2268815305843 506.23835980263067L1455.2268815305843 506.23835980263067Q1451.274675574327 495.32383753971106 1451.274675574327 473.93137390438864L1451.274675574327 473.93137390438864L1451.274675574327 469.7953444152823Q1451.274675574327 444.19791746603505 1461.9364404795788 433.8578437432691L1461.9364404795788 433.8578437432691Q1471.541220070948 424.64368915920437 1493.9906690201533 424.64368915920437L1493.9906690201533 424.64368915920437Q1515.8886473708108 424.64368915920437 1523.8849710497498 435.4662996556994L1523.8849710497498 435.4662996556994Q1527.7682431811886 440.7282482835069 1529.0090520279205 448.19607930550455Q1530.2728388162586 455.66391032750215 1530.2728388162586 462.4424031013154L1530.2728388162586 462.4424031013154Q1530.2728388162586 473.03523418174893 1529.7903020425297 478.848653408104L1529.7903020425297 478.848653408104Q1518.3932430058812 479.3311901818331 1509.339934013059 479.3311901818331L1509.339934013059 479.3311901818331Q1509.339934013059 479.3311901818331 1496.33441906398 479.3311901818331L1496.33441906398 479.3311901818331Q1475.9759628009342 479.3311901818331 1464.9925067131962 477.5618886781598L1464.9925067131962 477.5618886781598Q1464.9925067131962 496.1280654959262 1469.6800068008502 503.4810068098931L1469.6800068008502 503.4810068098931Q1475.4244922023868 512.4653819778964 1492.543058698966 512.4653819778964Q1509.6846031371515 512.4653819778964 1525.3555593125434 505.7558230289016L1525.3555593125434 505.7558230289016ZM1464.9925067131962 468.09497673642744L1516.6239415022078 468.09497673642744L1516.6239415022078 460.35141041515607Q1516.6239415022078 447.66758664856314 1511.6836840568862 442.2447924295126L1511.6836840568862 442.2447924295126Q1506.1919560130173 436.20159378709604 1492.7039042902093 436.20159378709604L1492.7039042902093 436.20159378709604Q1476.550411341088 436.20159378709604 1470.6450803483085 443.23284391857686L1470.6450803483085 443.23284391857686Q1464.9925067131962 449.91942492596553 1464.9925067131962 468.09497673642744L1464.9925067131962 468.09497673642744ZM1565.2452659408136 522.3918527517517L1565.2452659408136 399.5287989836862Q1565.2452659408136 399.5287989836862 1577.377619108859 398.6326592610465L1577.377619108859 398.6326592610465Q1595.553170919321 397.18504893985926 1606.3757814158162 397.18504893985926Q1617.1983919123109 397.18504893985926 1623.6551935036382 398.0352327792867Q1630.1119950949656 398.8854166187141 1635.0062966570745 400.9304534216611Q1639.9005982191838 402.9984681662143 1643.3243115184996 406.56004911516703Q1646.7710027594217 410.0986521225136 1648.9309292703992 415.59038016638266L1648.9309292703992 415.59038016638266Q1653.0669587595057 425.86152006433014 1653.0669587595057 446.1280645609514L1653.0669587595057 446.1280645609514L1653.0669587595057 458.65104273630124Q1653.0669587595057 482.6400137731182 1649.505377810553 495.09405812364963L1649.505377810553 495.09405812364963Q1645.3923262630528 509.4552716274912 1634.730561357801 515.7742055691815L1634.730561357801 515.7742055691815Q1623.7471052700625 522.3918527517517 1602.4925092843773 522.3918527517517L1602.4925092843773 522.3918527517517L1565.2452659408136 522.3918527517517ZM1633.834421635161 418.4166669839386Q1630.9162230511806 413.82107866270934 1625.4244950073116 411.4773286188824Q1619.9327669634426 409.1335785750554 1608.5586858684 409.1335785750554Q1597.1616268317512 409.1335785750554 1578.9860750212893 410.51225507142425L1578.9860750212893 410.51225507142425L1578.9860750212893 510.83394812385995L1604.6754137369612 510.83394812385995Q1619.7029875473809 510.83394812385995 1626.9640170949233 505.9166686201446L1626.9640170949233 505.9166686201446Q1634.0871789928287 501.1372567660661 1636.499862861474 489.51041831335596L1636.499862861474 489.51041831335596Q1638.5908555476335 479.9745725468052 1638.5908555476335 458.65104273630124L1638.5908555476335 458.65104273630124L1638.5908555476335 446.0591307361329Q1638.5908555476335 425.93045388914857 1633.834421635161 418.4166669839386L1633.834421635161 418.4166669839386ZM1680.2958195627893 522.3918527517517L1699.3445331542848 398.7935048522895L1720.4382835487272 398.7935048522895L1748.5403061330444 490.08486685350965L1753.319717987123 509.7999407515834L1757.9153063083522 489.9929550870851L1785.0522553452115 398.7935048522895L1805.180932192196 398.7935048522895L1825.1257855063309 522.3918527517517L1811.3849764258553 522.3918527517517L1796.3574026154356 429.00949806437217L1794.1055643380332 407.20343148013916L1789.1882848343175 429.1703436556152L1761.3160416660621 522.2999409853271L1745.3923281330026 522.2999409853271L1716.3022540596212 428.68780688188616L1710.5807465996904 407.20343148013916L1707.8233936069528 428.84865247312916L1694.174496292902 522.3918527517517L1680.2958195627893 522.3918527517517Z " fill="#2596be" transform="matrix(0.4805632351291725,0,0,0.48056323512917254,-2.0883468139849612,84.22694071244838)"/></g></svg>